<svg xmlns="http://www.w3.org/2000/svg" width="96" height="96" viewBox="0 0 96 96">
  <g id="Grupo_1189314" data-name="Grupo 1189314" transform="translate(5652.711 9255.65)">
    <g id="Grupo_1189313" data-name="Grupo 1189313">
      <path id="Elipse_5729" data-name="Elipse 5729" d="M48,0A48,48,0,1,1,0,48,48,48,0,0,1,48,0Z" transform="translate(-5652.711 -9255.65)" fill="#06b6d4"/>
      <g id="Grupo_1188556" data-name="Grupo 1188556" transform="translate(-6179.823 -9782.021)">
        <path id="Trazado_1066333" data-name="Trazado 1066333" d="M556.56,594.394v-5.813h2.122v5.464l4.331-.574.8-1.728c-.059-.1-.168-.27-.268-.447a3.174,3.174,0,0,1,1.1-4.444,1.1,1.1,0,0,0,.609-1.081q-.048-2.37,0-4.741a1.494,1.494,0,0,0-.566-1.253q-2.247-2-4.442-4.057c-.485-.453-.9-.977-1.5-1.628v3.485h-2.191v-1.012c0-1.763.012-3.526-.01-5.289a3.013,3.013,0,0,0-.217-1.143,21.371,21.371,0,0,1-1.617-5.107,2.609,2.609,0,0,0-.14-.4H552.22v5.576l-9.991-10.021,9.944-9.9v5.521h2.907a20.619,20.619,0,0,1,8.926-11.983,20.208,20.208,0,0,1,11.873-3.177,20.771,20.771,0,0,1,19.15,15.174h2.839v-5.564l.192-.112c3.359,3.3,6.667,6.659,9.937,9.914l-10.069,10.053v-5.487h-2.407c-.238.909-.453,1.82-.718,2.717a11.749,11.749,0,0,1-.707,1.967,5.545,5.545,0,0,0-.575,2.718c.045,1.82.013,3.643.013,5.537H591.4V574.2c-1.465,1.385-2.819,2.673-4.183,3.95-.621.581-1.252,1.152-1.9,1.707a1.215,1.215,0,0,0-.482,1.014c.021,1.672.016,3.343,0,5.015a.905.905,0,0,0,.469.883,3.155,3.155,0,0,1,1.063,4.771,1.868,1.868,0,0,0-.1.205l.8,1.718,4.287.576v-5.456h2.135v5.793l4.378,1.071v-2.522h2.144v3.233c.79.426,1.527.78,2.215,1.212a6.669,6.669,0,0,1,1.337,1.087,2.846,2.846,0,0,1-.023,4.1,8.694,8.694,0,0,1-3.116,2.011,34.545,34.545,0,0,1-7.349,2.059,92.815,92.815,0,0,1-11.946,1.324,117.561,117.561,0,0,1-15.582-.217,60.565,60.565,0,0,1-13.528-2.324,32.667,32.667,0,0,1-4.164-1.8,4.654,4.654,0,0,1-1.273-1.019,2.773,2.773,0,0,1,.035-4.2,12.233,12.233,0,0,1,2.711-1.8,1.072,1.072,0,0,0,.707-1.175c-.045-.813-.011-1.63-.011-2.5h2.144v2.544Zm18.411,11.684a104.281,104.281,0,0,0,19.661-1.993,23.356,23.356,0,0,0,5.691-1.875,7.266,7.266,0,0,0,1.435-.953c.674-.581.647-.955-.023-1.572a2.782,2.782,0,0,0-.658-.484,29.893,29.893,0,0,0-2.895-1.308A51.727,51.727,0,0,0,587.5,595.71c-.565-.072-1.061-.078-1.418.509a1.547,1.547,0,0,1-.784.6,1.416,1.416,0,0,0-.893,1.044,8.732,8.732,0,0,1-8.108,5.867c-.79.017-1.581.026-2.371,0a8.578,8.578,0,0,1-7.946-5.163c-.417-.862-.728-1.7-1.685-2.07a.285.285,0,0,1-.139-.114c-.491-.894-1.275-.744-2.066-.594-.268.051-.541.076-.812.109a43.331,43.331,0,0,0-9.5,2.048,16.532,16.532,0,0,0-3.308,1.678c-.874.565-.816,1.052-.028,1.736a3.318,3.318,0,0,0,.741.525A29.063,29.063,0,0,0,552,603.122a49.276,49.276,0,0,0,11.418,2.221C567.26,605.7,571.12,605.842,574.971,606.078Zm7.715-19.74v-.961c0-1.672.044-3.345-.019-5.014a2.028,2.028,0,0,1,.81-1.79c1.343-1.14,2.634-2.342,3.942-3.523a18.285,18.285,0,0,0,3.79-4.751,17.4,17.4,0,0,0,2.021-5.717c-2.245,0-4.424-.017-6.6.013-.482.007-.6.373-.275.761.287.344.626.645.864.886l-6.184,6.242a11.375,11.375,0,0,0-.886-.973c-.378-.336-.673-.206-.712.305-.036.468-.008.942-.008,1.4h-8.765c0-.5.029-.956-.008-1.4-.041-.51-.326-.627-.718-.3-.361.3-.687.646-.951.9l-6.14-6.115a7.8,7.8,0,0,0,.637-.688,5.762,5.762,0,0,0,.408-.752,2.733,2.733,0,0,0-.8-.273c-1.884-.024-3.769-.014-5.654-.01a4.758,4.758,0,0,0-.57.074c.044.25.07.455.115.655a18.109,18.109,0,0,0,5.3,9.369c1.5,1.419,3.048,2.789,4.6,4.157a1.4,1.4,0,0,1,.533,1.173c-.027,1.823-.013,3.647-.008,5.47,0,.289.03.577.044.835h2.139c0-2.224-.007-4.379.005-6.534,0-.445-.331-.532-.614-.688a2.741,2.741,0,0,1-1.431-3.554h1.993a2.946,2.946,0,0,1,.044.592.991.991,0,0,0,.7,1.2,2.326,2.326,0,0,1,1.5,2.455c-.029,1.914-.01,3.829-.005,5.744,0,.262.036.525.057.8h2.125V575.545H576.2v10.76h2.114v-.792c0-1.975.007-3.951,0-5.926a2.057,2.057,0,0,1,1.1-2.05c.813-.379,1.291-.837,1.116-1.779-.013-.069.069-.155.1-.227h2c.216,1.618.031,2.988-1.679,3.638-.443.168-.45.5-.449.883.007,1.915,0,3.829.007,5.744a4.106,4.106,0,0,0,.076.543Zm-1.674-38.475,6.269,6.265c-.285.293-.616.6-.906.942-.358.422-.236.717.314.8a3.714,3.714,0,0,0,.546.013c1.519,0,3.038,0,4.557,0,.288,0,.576-.033.88-.052a18.353,18.353,0,0,0-19.034-12.995c-7.419.468-15.3,6.782-16.167,13.049h2.187c1.215,0,2.43.012,3.645-.018a.808.808,0,0,0,.569-.322c.061-.092-.1-.382-.218-.53-.266-.322-.574-.611-.75-.795l6.171-6.24a10.712,10.712,0,0,0,.822.908.7.7,0,0,0,.557.125c.1-.025.192-.285.2-.445.027-.444.01-.891.01-1.339h8.761c0,.49-.018.913.009,1.333.01.161.1.421.2.448a.665.665,0,0,0,.556-.118A11.663,11.663,0,0,0,581.012,547.863Zm3.3,6.159q-1.273-1.24-2.543-2.476c-.194-.188-.4-.367-.58-.536-2.159.719-3.072.028-4.029-1.649-1.158,0-2.343.024-3.526-.011a1,1,0,0,0-1.137.638,2.008,2.008,0,0,1-1.6,1.219,13.648,13.648,0,0,1-2.2-.083c-.694.708-1.548,1.61-2.44,2.474a.83.83,0,0,0-.268,1.1,2.17,2.17,0,0,1-.075,1.765,3.272,3.272,0,0,1-1.74,1.6v4.314c2,1.009,2.269,2.281,1.7,3.842l3.156,3.191c1.487-.588,2.846-.335,3.854,1.658H577.2c.807-1.516,1.654-2.358,3.839-1.7l3.224-3.141c-.668-1.776-.254-2.759,1.678-3.859,0-1.178,0-2.391,0-3.6,0-.24-.024-.48-.036-.7C583.989,557.117,583.6,555.743,584.315,554.023Zm15.743,11.01,4.793-4.7-4.82-4.761v2.495H588.188v4.32h11.87ZM550,558.042v-2.6l-4.758,4.7,4.815,4.869v-2.681H561.9v-4.29Zm17.785,39.228a6.621,6.621,0,0,0,4.283,4,11.577,11.577,0,0,0,4.339.275,6.465,6.465,0,0,0,5.651-3.709,3.182,3.182,0,0,0,.17-.571Zm7.21-6.555q4.051,0,8.1,0a4.1,4.1,0,0,0,.9-.066,1.054,1.054,0,0,0,.831-1.056,1.039,1.039,0,0,0-.866-1.024,4.028,4.028,0,0,0-.814-.055q-8.1,0-16.2,0a4.124,4.124,0,0,0-.815.053,1.037,1.037,0,0,0-.873,1.017,1.051,1.051,0,0,0,.821,1.063,4.023,4.023,0,0,0,.9.069Q570.988,590.72,574.993,590.715Zm.051,4.327h7.934a7.825,7.825,0,0,0,.82-.018,1.049,1.049,0,0,0,1.023-.972,1.036,1.036,0,0,0-.937-1.146,5.018,5.018,0,0,0-.908-.046q-7.934,0-15.868,0a6.356,6.356,0,0,0-.729.016c-.715.084-1.123.489-1.121,1.089,0,.628.454,1.032,1.214,1.074.212.012.426,0,.638,0Z" fill="#0f172a"/>
        <path id="Trazado_1066334" data-name="Trazado 1066334" d="M587.355,718.931h-2.027v-10.8h2.027Z" transform="translate(-35.24 -136.962)" fill="#0f172a"/>
        <path id="Trazado_1066335" data-name="Trazado 1066335" d="M849.945,718.851h-2.038V708.029h2.038Z" transform="translate(-249.939 -136.875)" fill="#0f172a"/>
        <path id="Trazado_1066336" data-name="Trazado 1066336" d="M585.265,781.856v-2.084h2.048v2.084Z" transform="translate(-35.189 -195.536)" fill="#0f172a"/>
        <path id="Trazado_1066337" data-name="Trazado 1066337" d="M849.955,781.816h-2.038V779.7h2.038Z" transform="translate(-249.948 -195.481)" fill="#0f172a"/>
        <path id="Trazado_1066338" data-name="Trazado 1066338" d="M585.17,805.728v-2.061h2.083v2.061Z" transform="translate(-35.111 -215.074)" fill="#0f172a"/>
        <path id="Trazado_1066339" data-name="Trazado 1066339" d="M849.957,803.723v2.049h-2.04v-2.049Z" transform="translate(-249.948 -215.12)" fill="#0f172a"/>
        <path id="Trazado_1066340" data-name="Trazado 1066340" d="M621.255,755.8h1.989v2.1h-1.989Z" transform="translate(-64.616 -175.939)" fill="#0f172a"/>
        <path id="Trazado_1066341" data-name="Trazado 1066341" d="M814.194,758.057h-2v-2.065h2Z" transform="translate(-220.739 -176.092)" fill="#0f172a"/>
        <path id="Trazado_1066342" data-name="Trazado 1066342" d="M621.057,781.8v-2.065h2.034V781.8Z" transform="translate(-64.454 -195.507)" fill="#0f172a"/>
        <path id="Trazado_1066343" data-name="Trazado 1066343" d="M814.254,779.714c.021.254.049.457.052.661.008.449,0,.9,0,1.416H812.24v-2.076Z" transform="translate(-220.776 -195.489)" fill="#0f172a"/>
        <path id="Trazado_1066344" data-name="Trazado 1066344" d="M683.054,617.786a8.693,8.693,0,1,1,8.719-8.683A8.742,8.742,0,0,1,683.054,617.786Zm-1.116-15.055a6.208,6.208,0,0,0-5.237,5.209l1.9.095v2.1l-1.918.1c.337,2.673,3.055,5.295,5.271,5.1v-1.826h2.2v1.856c2.354.073,5.318-2.9,5.173-5.146l-1.841-.1v-2.166H689.4c-.327-2.886-3.2-5.173-5.272-5.191v1.93h-2.192Z" transform="translate(-107.999 -48.871)" fill="#0f172a"/>
        <path id="Trazado_1066345" data-name="Trazado 1066345" d="M707.606,630.318a3.242,3.242,0,1,1-3.3,3.175A3.225,3.225,0,0,1,707.606,630.318Zm-.023,4.3a1.087,1.087,0,0,0,1.076-1.1,1.091,1.091,0,0,0-2.181.028A1.087,1.087,0,0,0,707.583,634.616Z" transform="translate(-132.525 -73.334)" fill="#0f172a"/>
      </g>
    </g>
  </g>
</svg>
