<svg xmlns="http://www.w3.org/2000/svg" width="130" height="130" viewBox="0 0 130 130">
  <g id="Grupo_1189328" data-name="Grupo 1189328" transform="translate(-724.828 -3698.701)">
    <g id="Grupo_1189327" data-name="Grupo 1189327">
      <g id="Grupo_1189326" data-name="Grupo 1189326">
        <g id="Grupo_1189325" data-name="Grupo 1189325">
          <g id="Grupo_1189324" data-name="Grupo 1189324">
            <circle id="Elipse_13892" data-name="Elipse 13892" cx="65" cy="65" r="65" transform="translate(724.828 3698.701)" fill="#623f04"/>
            <path id="Trazado_1066069" data-name="Trazado 1066069" d="M550.712,526.9q0,20.1,0,40.2c0,.4.009.791,0,1.187-.047,1.439-.462,1.859-1.935,1.863-4.042.012-8.085,0-12.127,0-1.8,0-3.6.015-5.4-.006-1.375-.016-1.789-.446-1.843-1.822-.007-.175,0-.352,0-.527q0-40.468-.011-80.937a10.536,10.536,0,0,1,4.492-9.183,10.134,10.134,0,0,1,10.854-.9,9.984,9.984,0,0,1,5.927,8.985c.14,3.114.052,6.238.053,9.357Q550.716,511.017,550.712,526.9Zm-9.092,40.22V512.27c0-.351,0-.7,0-1.054.017-1.69.388-2.053,2.126-2.077.463-.006.925,0,1.293,0l-4.846-4.924-5.359,4.964c.356.019.607.038.858.044.307.007.616-.014.922.007a1.54,1.54,0,0,1,1.651,1.642c.028.438.011.878.011,1.318q0,26.622,0,53.244v1.689Zm3.048-54.87v54.864h2.965V512.251Zm-9.47.028c-.587,0-1.021-.011-1.454,0s-.837.054-1.242.081v54.728h2.7Zm4.848-18.351a7.608,7.608,0,0,0,7.651-7.582,7.644,7.644,0,1,0-15.288-.012A7.6,7.6,0,0,0,540.045,493.929Zm-7.527.038v12.739c1.993-1.944,3.945-3.836,5.883-5.743,1.367-1.346,1.889-1.353,3.272.024s2.731,2.733,4.1,4.1c.569.569,1.145,1.131,1.93,1.906,0-4.275,0-8.217,0-12.158,0-.246-.022-.492-.037-.788C541.334,498.052,537.719,498.04,532.518,493.966Z" transform="translate(249.78 3237.317)" fill="#fef5e6"/>
            <path id="Trazado_1066070" data-name="Trazado 1066070" d="M627.793,597.392c0-9.976-.016-19.952.008-29.928a10.442,10.442,0,0,1,6.969-10.029,10.62,10.62,0,0,1,14.107,7.974,14.738,14.738,0,0,1,.252,2.747q.021,29.664.01,59.329c0,2.022-.388,2.42-2.35,2.422q-8.372,0-16.744,0c-1.958,0-2.252-.3-2.252-2.323Q627.79,612.488,627.793,597.392Zm6.074,20.318V583.872c0-.352-.016-.7.007-1.055a1.552,1.552,0,0,1,1.638-1.679c2.021-.049,4.044-.042,6.065,0a1.513,1.513,0,0,1,1.622,1.553c.029.438.023.878.023,1.318q0,16.087,0,32.174v1.508h2.705V575.163c-5.083,3.975-10.086,3.918-15.075-.055v42.6Zm3.033-33.5v1.644q0,16.014,0,32.028c0,.4.015.792-.01,1.186-.074,1.2-.518,1.659-1.711,1.732-.582.036-1.168.006-1.881.006l5.088,5.115,5.111-5a3.325,3.325,0,0,0-.476-.1c-2.706-.156-2.784-.236-2.784-2.933q0-16.014,0-32.028v-1.65Zm9.1-16.794a7.633,7.633,0,0,0-7.6-7.639,7.771,7.771,0,0,0-7.63,7.672,7.651,7.651,0,0,0,7.663,7.581A7.5,7.5,0,0,0,646,567.419Zm-11.97,59.451-3.178-3.25v3.25Zm8.245-.036h3.635v-3.593Z" transform="translate(177.328 3177.57)" fill="#fef5e6"/>
            <path id="Trazado_1066071" data-name="Trazado 1066071" d="M452.246,687.666q0,8.369,0,16.738c0,1.736-.363,2.108-2.066,2.11q-8.566.01-17.133,0c-1.649,0-2.141-.474-2.142-2.095-.007-10.939-.035-21.878.012-32.817a10.677,10.677,0,0,1,20.064-5.2,10.35,10.35,0,0,1,1.272,5.181C452.234,676.947,452.245,682.307,452.246,687.666Zm-10.635-8.592a7.632,7.632,0,0,0,7.651-7.585,7.775,7.775,0,0,0-7.641-7.654,7.637,7.637,0,0,0-7.588,7.648A7.481,7.481,0,0,0,441.611,679.074Zm-4.663,15.234c0-2.522-.017-4.89.007-7.257.013-1.278.571-1.847,1.853-1.87,1.93-.033,3.863-.037,5.793,0a1.664,1.664,0,0,1,1.812,1.807c.037.92.009,1.843.009,2.765,0,1.518,0,3.035,0,4.519h2.758V679.149c-5.075,4.047-10.074,3.99-15.061.078v15.082Zm3.095-6.039c-.024.547-.062,1.018-.064,1.489-.008,1.887.018,3.773-.013,5.66-.025,1.524-.479,1.958-1.975,2-.49.015-.981,0-1.573,0l5.012,5.144,5.218-5.035a6.2,6.2,0,0,0-.644-.1c-2.552-.122-2.719-.3-2.72-2.875v-6.287Zm9.164,11.613-.219-.155-3.664,3.728h3.883Zm-15.136,3.56h3.311L434.07,700Z" transform="translate(322.301 3100.961)" fill="#fef5e6"/>
            <path id="Trazado_1066072" data-name="Trazado 1066072" d="M557.884,522.11c-.877,0-1.756.036-2.631-.01a1.556,1.556,0,1,1,.026-3.1c1.71-.041,3.422-.038,5.131,0a1.572,1.572,0,0,1,1.742,1.564c-.007.905-.655,1.495-1.768,1.542C559.552,522.139,558.717,522.111,557.884,522.11Z" transform="translate(231.969 3205.402)" fill="#fef5e6"/>
            <path id="Trazado_1066073" data-name="Trazado 1066073" d="M557.955,504.922c-.961,0-1.924.035-2.883-.01a1.441,1.441,0,0,1-1.507-1.467,1.426,1.426,0,0,1,1.506-1.467c1.877-.04,3.757-.033,5.635,0a1.366,1.366,0,0,1,1.432,1.4,1.4,1.4,0,0,1-1.432,1.527c-.914.052-1.834.011-2.751.011Z" transform="translate(231.977 3217.933)" fill="#fef5e6"/>
            <path id="Trazado_1066074" data-name="Trazado 1066074" d="M656.2,604.218c-.918,0-1.84.046-2.754-.012-1.049-.067-1.609-.664-1.585-1.552a1.489,1.489,0,0,1,1.67-1.464q2.623-.056,5.248,0a1.519,1.519,0,0,1,1.666,1.483c.016.851-.6,1.44-1.621,1.546-.087.009-.175.008-.262.008H656.2Z" transform="translate(159.606 3144.886)" fill="#fef5e6"/>
            <path id="Trazado_1066075" data-name="Trazado 1066075" d="M656.117,583.852c.875,0,1.751-.022,2.625.006a1.559,1.559,0,0,1,1.709,1.444,1.5,1.5,0,0,1-1.577,1.567c-1.836.05-3.675.043-5.511-.007a1.4,1.4,0,0,1-1.493-1.494c-.022-.867.614-1.441,1.622-1.512.087-.006.175,0,.262,0Z" transform="translate(159.599 3157.637)" fill="#fef5e6"/>
            <path id="Trazado_1066076" data-name="Trazado 1066076" d="M459.333,707.113c-.878,0-1.757.033-2.633-.011a1.664,1.664,0,0,1-1.706-1.5,1.637,1.637,0,0,1,1.74-1.6q2.566-.058,5.135,0a1.591,1.591,0,0,1,1.75,1.565c-.01.878-.7,1.495-1.785,1.54C461,707.143,460.167,707.115,459.333,707.113Z" transform="translate(304.553 3069.188)" fill="#fef5e6"/>
            <path id="Trazado_1066077" data-name="Trazado 1066077" d="M459.184,689.92c-.831,0-1.663.022-2.493-.005a1.564,1.564,0,0,1-1.7-1.442,1.522,1.522,0,0,1,1.628-1.508q2.689-.048,5.38,0a1.474,1.474,0,0,1,1.619,1.5c-.018.856-.638,1.416-1.676,1.45C461.022,689.943,460.1,689.919,459.184,689.92Z" transform="translate(304.557 3081.73)" fill="#fef5e6"/>
          </g>
        </g>
      </g>
    </g>
  </g>
</svg>
