<svg xmlns="http://www.w3.org/2000/svg" width="130" height="130" viewBox="0 0 130 130">
  <g id="Grupo_1189323" data-name="Grupo 1189323" transform="translate(-371.254 -3702.701)">
    <g id="Grupo_1189322" data-name="Grupo 1189322">
      <g id="Grupo_1189321" data-name="Grupo 1189321">
        <g id="Grupo_1189320" data-name="Grupo 1189320">
          <g id="Grupo_1189319" data-name="Grupo 1189319">
            <circle id="Elipse_13893" data-name="Elipse 13893" cx="65" cy="65" r="65" transform="translate(371.254 3702.701)" fill="#623f04"/>
            <path id="Trazado_1066058" data-name="Trazado 1066058" d="M432.185,571.967h-1.709c-7.91,0-15.82.024-23.731-.01a11.937,11.937,0,0,1-11.614-8.141,11.286,11.286,0,0,1,.8-9.844c5.447-9.536,10.951-19.039,16.434-28.555.642-1.114,1.281-2.231,1.93-3.341a12.14,12.14,0,0,1,16.834-4.537c.273.153.551.3,1.044.559V515.1c0-2.208,0-4.416,0-6.625.009-3.336,1.762-5.125,5.082-5.13q12.9-.02,25.8-.005c6.3,0,12.6.1,18.9-.037,3.791-.083,5.464,2.55,5.455,5.421q-.1,32.709,0,65.419a5,5,0,0,1-5.26,5.33q-22.419-.129-44.839,0c-3.243.017-5.385-2.367-5.134-5.13C432.241,573.622,432.185,572.889,432.185,571.967Zm26.483-46.457a11.33,11.33,0,0,1,5.658,8.777,41.1,41.1,0,0,1,.129,5.236c.01,1.916-.448,2.375-2.339,2.378-4.508.007-9.016,0-13.524.006-.433,0-.866.049-1.429.083.241.475.388.8.566,1.111,2.127,3.707,4.359,7.359,6.362,11.131a11.4,11.4,0,0,1-.041,11.241,11.713,11.713,0,0,1-10.758,6.494c-2.564.047-5.13.009-7.862.009,0,.806,0,1.482,0,2.159.012,1.767.331,2.112,2.072,2.122,2.852.016,5.7,0,8.556,0q17.94,0,35.88,0c1.9,0,2.215-.3,2.215-2.115q.006-32.787,0-65.574c0-1.713-.317-2.028-2.009-2.028q-22.356-.007-44.713,0c-1.681,0-2.02.339-2.025,2.02-.011,3.543.074,7.089-.036,10.629a8.152,8.152,0,0,0,1.34,4.925c1.145,1.757,2.133,3.615,3.123,5.315l4.211-4.148c-2.46-5.329-1.812-9.546,2.007-12.412a9.02,9.02,0,0,1,11.12.289C460.771,516.181,461.322,520.481,458.668,525.51Zm-33.725,43.265v0c5.8,0,11.591.018,17.386-.015a12.652,12.652,0,0,0,3.41-.347,8.827,8.827,0,0,0,5.354-13.019Q441.982,539.4,432.7,523.512a8.938,8.938,0,0,0-15.648.2c-1.551,2.66-3.079,5.334-4.617,8q-6.786,11.763-13.565,23.53a8.555,8.555,0,0,0,.2,9.4,8.777,8.777,0,0,0,7.937,4.134C412.984,568.761,418.964,568.775,424.943,568.775Zm36.136-30.148a32.087,32.087,0,0,0-.035-4.383,7.583,7.583,0,0,0-3.974-5.944,2.086,2.086,0,0,0-2.05-.074,8,8,0,0,1-6.813.109,2.877,2.877,0,0,0-3.256.485,7.011,7.011,0,0,0-2.613,3.462,2.408,2.408,0,0,0,.111,1.66c.645,1.316,1.466,2.543,2.155,3.839a1.614,1.614,0,0,0,1.655.919c4.638-.032,9.277-.015,13.916-.019C460.445,538.682,460.715,538.651,461.079,538.627Zm-9.627-24.393a5.779,5.779,0,0,0-.146,11.556,5.779,5.779,0,1,0,.146-11.556Z" transform="translate(-9.937 3223.636)" fill="#fef5e6"/>
            <path id="Trazado_1066059" data-name="Trazado 1066059" d="M667.279,699.3a22.06,22.06,0,0,1-2.474-.016,3.723,3.723,0,0,1-3.324-3.482,30.56,30.56,0,0,1,0-3.717,3.7,3.7,0,0,1,3.436-3.524,30.5,30.5,0,0,1,4.81.053,2.046,2.046,0,0,0,1.83-.615,8.071,8.071,0,0,1,1.26-1.062,1.555,1.555,0,0,1,2.028,2.332.349.349,0,0,1-.1.1c-1.9,1-1.794,2.741-1.681,4.492.024.366-.029.738.008,1.1a3.96,3.96,0,0,1-4.414,4.407c-.457-.03-.918,0-1.377,0Zm.061-7.388c-2.628-.417-2.767-.3-2.769,1.877,0,.459,0,.919.012,1.378a.9.9,0,0,0,1.032,1c.826-.013,1.653,0,2.48,0,1.843,0,2.007-.217,1.61-2.215-.526.427-1,.832-1.5,1.21a1.454,1.454,0,0,1-2.1-.161,1.553,1.553,0,0,1-.008-2.129A8.87,8.87,0,0,1,667.34,691.907Z" transform="translate(-203.309 3090.878)" fill="#fef5e6"/>
            <path id="Trazado_1066060" data-name="Trazado 1066060" d="M667.7,534.685a4.5,4.5,0,0,1,.688.005,4.166,4.166,0,0,0,4.153-1.39,1.482,1.482,0,0,1,2.312,0,1.514,1.514,0,0,1-.246,2.3c-1.583,1.01-1.7,2.418-1.553,4.025a16.412,16.412,0,0,1,0,2.2,3.729,3.729,0,0,1-3.6,3.645c-1.467.063-2.941.065-4.408,0a3.75,3.75,0,0,1-3.573-3.54,32.25,32.25,0,0,1-.007-3.582,3.8,3.8,0,0,1,3.751-3.655c.826-.029,1.653-.005,2.48-.005Zm2.1,5.4c-1.263.626-2.163,2.615-3.693.992-1.189-1.262.158-2.185.964-3.106-2.289-.38-2.495-.214-2.5,1.908,0,.367.023.735,0,1.1-.065.924.325,1.365,1.275,1.324.731-.032,1.465,0,2.2-.005C669.914,542.287,670.005,542.178,669.8,540.082Z" transform="translate(-203.308 3202.318)" fill="#fef5e6"/>
            <path id="Trazado_1066061" data-name="Trazado 1066061" d="M667.227,648.012c-.735,0-1.473.049-2.2-.009a3.707,3.707,0,0,1-3.54-3.7c-.045-1.055-.038-2.115,0-3.171a3.843,3.843,0,0,1,3.82-3.905c1.643-.045,3.29.126,4.937.151a1.686,1.686,0,0,0,.949-.354c.55-.411,1.01-.947,1.572-1.336a1.561,1.561,0,0,1,2.132.2,1.639,1.639,0,0,1-.057,2.142.372.372,0,0,1-.1.094c-1.784.995-1.828,2.639-1.652,4.378a12.34,12.34,0,0,1,.005,1.378c-.032,2.639-1.425,4.067-4.066,4.157-.6.02-1.195,0-1.792,0Zm2.6-5.386c-.391.3-.635.482-.872.672a9.491,9.491,0,0,1-.744.608,1.565,1.565,0,0,1-2.115-.206,1.588,1.588,0,0,1,.029-2.138c.257-.328.562-.616.917-1-2.452-.175-2.453-.175-2.453,1.979,0,.458,0,.917.013,1.375a.9.9,0,0,0,1.038.988c.779-.011,1.558,0,2.336,0C669.936,644.9,670,644.833,669.831,642.626Z" transform="translate(-203.33 3128.018)" fill="#fef5e6"/>
            <path id="Trazado_1066062" data-name="Trazado 1066062" d="M667.263,601.737c-.735,0-1.471.034-2.2-.007a3.815,3.815,0,0,1-3.636-3.633,34.7,34.7,0,0,1,0-3.581,3.7,3.7,0,0,1,3.549-3.549c1.512-.07,3.033-.075,4.544.005a3.668,3.668,0,0,1,3.485,3.6c.047,1.1.037,2.205.009,3.307a3.8,3.8,0,0,1-3.822,3.864c-.642.023-1.286,0-1.928,0Zm-.074-7.621c-2.776.012-2.609-.27-2.608,2.579,0,.275.011.55,0,.824-.019.76.385,1.07,1.1,1.067.824,0,1.648.007,2.472,0,1.62-.01,1.73-.115,1.736-1.7C669.906,593.849,670.085,594.123,667.189,594.116Z" transform="translate(-203.277 3160.2)" fill="#fef5e6"/>
            <path id="Trazado_1066063" data-name="Trazado 1066063" d="M612.061,657.389c-1.287,0-2.576.028-3.862-.008-1.232-.035-1.832-.591-1.83-1.6s.614-1.582,1.829-1.6q3.931-.046,7.863,0a1.7,1.7,0,0,1,1.88,1.593c0,.911-.72,1.564-1.879,1.6C614.729,657.418,613.4,657.388,612.061,657.389Z" transform="translate(-163.446 3114.4)" fill="#fef5e6"/>
            <path id="Trazado_1066064" data-name="Trazado 1066064" d="M623.5,685.243c-.778,0-1.559.048-2.331-.012a1.56,1.56,0,0,1,.051-3.117c1.6-.064,3.2-.062,4.8,0a1.579,1.579,0,0,1,1.569,1.586,1.635,1.635,0,0,1-1.621,1.543c-.819.057-1.646.012-2.469.012Z" transform="translate(-173.09 3094.199)" fill="#fef5e6"/>
            <path id="Trazado_1066065" data-name="Trazado 1066065" d="M631.06,712.986a8.984,8.984,0,0,1-1.364-.012,1.56,1.56,0,0,1,.04-3.107,16.023,16.023,0,0,1,2.594,0,1.525,1.525,0,0,1,1.482,1.512,1.561,1.561,0,0,1-1.389,1.594,12.35,12.35,0,0,1-1.363.07Z" transform="translate(-179.328 3074.108)" fill="#fef5e6"/>
            <path id="Trazado_1066066" data-name="Trazado 1066066" d="M440.774,614.406c-6.026,0-12.052-.013-18.077.006a5.984,5.984,0,0,1-5.969-3.847,6.247,6.247,0,0,1,.614-5.924c2.4-4.081,4.742-8.194,7.108-12.294q5.342-9.254,10.684-18.508c2-3.465,5.656-4.637,8.778-2.65a8.059,8.059,0,0,1,2.478,2.688c6,10.281,11.876,20.633,17.9,30.9a6.277,6.277,0,0,1-5.443,9.67C452.828,614.287,446.8,614.406,440.774,614.406Zm-.02-3.121h12.557c1.932,0,3.866.057,5.795-.022a3,3,0,0,0,2.643-4.427c-.137-.29-.312-.563-.473-.841q-8.783-15.227-17.557-30.459c-.686-1.194-1.521-2.092-2.995-2.065a3.328,3.328,0,0,0-2.879,2.033q-6.284,10.939-12.613,21.851c-1.77,3.064-3.561,6.116-5.288,9.2-1.01,1.807-.457,3.681,1.271,4.4a5.042,5.042,0,0,0,1.877.312C428.979,611.294,434.867,611.284,440.754,611.285Z" transform="translate(-25.774 3175.182)" fill="#fef5e6"/>
            <path id="Trazado_1066067" data-name="Trazado 1066067" d="M489.284,617.028c0-1.655-.029-3.311.007-4.965a4.384,4.384,0,0,1,8.765-.141q.123,5.238,0,10.482a4.384,4.384,0,0,1-8.764-.134C489.255,620.523,489.283,618.775,489.284,617.028Zm5.594.221c0-1.609-.011-3.218,0-4.826.009-.862-.336-1.506-1.223-1.509s-1.258.655-1.26,1.5q-.008,4.758,0,9.515c0,.835.359,1.487,1.258,1.5.939.019,1.22-.658,1.219-1.494Q494.875,619.594,494.878,617.249Z" transform="translate(-78.659 3148.048)" fill="#fef5e6"/>
            <path id="Trazado_1066068" data-name="Trazado 1066068" d="M493.621,689.586a4.137,4.137,0,0,1-4.328-4.31,4.206,4.206,0,0,1,4.431-4.239,4.285,4.285,0,0,1,4.363,4.345A4.212,4.212,0,0,1,493.621,689.586Zm1.235-4.358c-.075-.728-.585-.948-1.24-.938-.677.01-1.148.319-1.178,1.047a1.161,1.161,0,0,0,1.33,1.064A1.063,1.063,0,0,0,494.856,685.228Z" transform="translate(-78.674 3094.944)" fill="#fef5e6"/>
          </g>
        </g>
      </g>
    </g>
  </g>
</svg>
